<svg width="340" height="88" viewBox="0 0 340 88" fill="none" xmlns="http://www.w3.org/2000/svg" role="img" aria-label="HisabERP - حساب">
  <g transform="translate(20,16)">
    <g stroke="#FFFFFF" stroke-opacity="0.35" stroke-width="2.2" stroke-linecap="round">
      <line x1="14" y1="19" x2="42" y2="19"/><line x1="14" y1="28" x2="42" y2="28"/><line x1="14" y1="37" x2="42" y2="37"/>
    </g>
    <g fill="#FFFFFF" fill-opacity="0.30">
      <circle cx="28" cy="19" r="3.5"/><circle cx="38" cy="19" r="3.5"/>
      <circle cx="18" cy="28" r="3.5"/><circle cx="38" cy="28" r="3.5"/>
      <circle cx="18" cy="37" r="3.5"/><circle cx="28" cy="37" r="3.5"/>
    </g>
    <g fill="#E7C36B">
      <circle cx="18" cy="19" r="5"/><circle cx="28" cy="28" r="5"/><circle cx="38" cy="37" r="5"/>
    </g>
  </g>
  <!-- wordmark converted to outlines (Reem Kufi 700 / Sora 600) -->
  <g>
    <path d="M58 -58Q34 -58 17.0 -41.0Q0 -24 0 0Q0 24 17.0 41.0Q34 58 58 58Q82 58 99.0 41.0Q116 24 116 0Q116 -24 99.0 -41.0Q82 -58 58 -58Z" fill="#FFFFFF" transform="translate(95.97,47.10) scale(0.03400,-0.03400)"/>
    <path d="M25 0 109 140H685V0ZM605 0V140H685V309L825 340V23Q825 11 815.0 6.0Q805 1 795.0 0.5Q785 0 785 0Z" fill="#FFFFFF" transform="translate(84.00,42.00) scale(0.03400,-0.03400)"/>
    <path d="M65 0Q65 0 55.0 0.5Q45 1 35.0 6.0Q25 11 25 23V769L165 800V140H245V0Z" fill="#FFFFFF" transform="translate(112.90,42.00) scale(0.03400,-0.03400)"/>
    <path d="M-20 0V140H60V309L200 340V140H260V359L400 390V140H460V409L600 440V140H720V0Z" fill="#FFFFFF" transform="translate(120.55,42.00) scale(0.03400,-0.03400)"/>
    <path d="M17 40 0 70 225 200 242 170Z" fill="#FFFFFF" transform="translate(148.40,53.90) scale(0.03400,-0.03400)"/>
    <path d="M-20 0V140H128Q115 153 102.5 171.5Q90 190 76 214L142 342Q179 286 224.0 240.0Q269 194 312.0 167.0Q355 140 386 140H660L600 0Z" fill="#FFFFFF" transform="translate(144.35,42.00) scale(0.03400,-0.03400)"/>
    <path d="M569 0V730H711V0ZM90 0V730H232V0ZM206 303V428H595V303Z" fill="#FFFFFF" transform="translate(85.00,68.00) scale(0.01600,-0.01600)"/>
    <path d="M105 0V543H244V0ZM29 439V543H244V439ZM156 608Q115 608 95.5 629.5Q76 651 76 684Q76 717 95.5 738.0Q115 759 156 759Q197 759 216.0 738.0Q235 717 235 684Q235 651 216.0 629.5Q197 608 156 608Z" fill="#FFFFFF" transform="translate(100.32,68.00) scale(0.01600,-0.01600)"/>
    <path d="M276 -17Q164 -17 100.5 30.5Q37 78 34 162H159Q162 134 190.0 111.0Q218 88 278 88Q328 88 357.5 106.0Q387 124 387 155Q387 182 364.5 198.0Q342 214 288 219L240 224Q149 234 100.0 276.0Q51 318 51 388Q51 444 79.0 482.0Q107 520 156.5 539.5Q206 559 270 559Q370 559 432.0 515.0Q494 471 497 386H372Q370 414 344.0 434.0Q318 454 269 454Q225 454 201.0 437.0Q177 420 177 393Q177 367 196.5 353.0Q216 339 260 334L308 329Q404 319 458.5 276.0Q513 233 513 160Q513 106 483.5 66.5Q454 27 401.0 5.0Q348 -17 276 -17Z" fill="#FFFFFF" transform="translate(108.02,68.00) scale(0.01600,-0.01600)"/>
    <path d="M408 0V161H385V340Q385 387 362.0 410.0Q339 433 291 433Q266 433 231.0 432.0Q196 431 160.5 429.5Q125 428 97 426V544Q120 546 149.0 548.0Q178 550 208.5 550.5Q239 551 266 551Q350 551 405.5 529.0Q461 507 489.5 460.0Q518 413 518 337V0ZM233 -14Q174 -14 129.5 7.0Q85 28 60.5 67.0Q36 106 36 161Q36 221 65.5 259.0Q95 297 148.5 316.0Q202 335 274 335H400V252H272Q224 252 198.5 228.5Q173 205 173 168Q173 131 198.5 108.0Q224 85 272 85Q301 85 325.5 95.5Q350 106 366.5 131.5Q383 157 385 201L419 162Q414 105 391.5 66.0Q369 27 329.5 6.5Q290 -14 233 -14Z" fill="#FFFFFF" transform="translate(119.30,68.00) scale(0.01600,-0.01600)"/>
    <path d="M398 -18Q331 -18 280.0 10.5Q229 39 200.0 94.0Q171 149 168 227H189V0H79V730H218V365L181 308Q185 392 214.5 448.0Q244 504 294.0 532.0Q344 560 407 560Q463 560 509.0 539.0Q555 518 588.0 480.5Q621 443 638.5 393.0Q656 343 656 284V263Q656 204 638.0 153.0Q620 102 586.0 63.5Q552 25 504.5 3.5Q457 -18 398 -18ZM367 99Q412 99 445.5 121.5Q479 144 498.0 183.0Q517 222 517 273Q517 325 498.0 363.0Q479 401 445.5 422.0Q412 443 367 443Q326 443 291.5 425.0Q257 407 235.5 372.0Q214 337 214 288V248Q214 201 236.0 168.0Q258 135 293.0 117.0Q328 99 367 99Z" fill="#FFFFFF" transform="translate(131.21,68.00) scale(0.01600,-0.01600)"/>
    <path d="M90 0V730H229V0ZM209 0V120H540V0ZM209 311V431H514V311ZM209 610V730H532V610Z" fill="#E7C36B" transform="translate(147.39,68.00) scale(0.01600,-0.01600)"/>
    <path d="M90 0V735H232V0ZM536 0 312 318H471L702 0ZM190 244V359H376Q415 359 443.5 375.0Q472 391 488.0 420.0Q504 449 504 486Q504 524 488.0 553.0Q472 582 443.5 598.0Q415 614 376 614H190V735H361Q449 735 513.5 709.0Q578 683 613.0 630.0Q648 577 648 497V481Q648 400 612.5 348.0Q577 296 513.0 270.0Q449 244 361 244Z" fill="#E7C36B" transform="translate(159.43,68.00) scale(0.01600,-0.01600)"/>
    <path d="M212 224V347H354Q397 347 426.5 364.0Q456 381 471.5 411.0Q487 441 487 480Q487 519 471.5 549.0Q456 579 426.5 595.5Q397 612 354 612H212V735H342Q434 735 498.5 705.0Q563 675 597.0 619.5Q631 564 631 488V472Q631 396 597.0 340.5Q563 285 498.5 254.5Q434 224 342 224ZM90 0V735H232V0Z" fill="#E7C36B" transform="translate(173.45,68.00) scale(0.01600,-0.01600)"/>
  </g>
</svg>
